<svg xmlns="http://www.w3.org/2000/svg" width="60" height="60" viewBox="0 0 60 60">
  <defs>
    <pattern id="fire" patternUnits="userSpaceOnUse" width="60" height="60">
      <!-- Flame shapes -->
      <path d="M15 45 Q15 35 20 30 Q18 38 22 42 Q20 38 25 32 Q22 40 20 45 Z" fill="currentColor" opacity="0.3"/>
      <path d="M35 50 Q38 40 42 35 Q40 42 45 38 Q42 45 48 40 Q45 48 40 50 Z" fill="currentColor" opacity="0.25"/>
      <path d="M5 55 Q8 48 12 45 Q10 50 15 47 Q12 52 8 55 Z" fill="currentColor" opacity="0.2"/>
      <path d="M50 58 Q52 52 55 48 Q53 54 58 50 Q55 56 52 58 Z" fill="currentColor" opacity="0.2"/>
      <!-- Sparks -->
      <circle cx="10" cy="20" r="1" fill="currentColor" opacity="0.15"/>
      <circle cx="30" cy="15" r="1.5" fill="currentColor" opacity="0.2"/>
      <circle cx="50" cy="25" r="1" fill="currentColor" opacity="0.15"/>
      <circle cx="25" cy="55" r="1" fill="currentColor" opacity="0.1"/>
      <circle cx="45" cy="10" r="1" fill="currentColor" opacity="0.15"/>
    </pattern>
  </defs>
  <rect width="100%" height="100%" fill="url(#fire)"/>
</svg>
